<?xml version="1.0" encoding="utf-8"?>
<!-- Generator: Adobe Illustrator 16.0.0, SVG Export Plug-In . SVG Version: 6.00 Build 0)  -->
<!DOCTYPE svg PUBLIC "-//W3C//DTD SVG 1.1//EN" "http://www.w3.org/Graphics/SVG/1.1/DTD/svg11.dtd">
<svg version="1.1"
	 id="Layer_1" xmlns:rdf="http://www.w3.org/1999/02/22-rdf-syntax-ns#" xmlns:cc="http://creativecommons.org/ns#" xmlns:dc="http://purl.org/dc/elements/1.1/"
	 xmlns="http://www.w3.org/2000/svg" xmlns:xlink="http://www.w3.org/1999/xlink" x="0px" y="0px" width="302px" height="204.27px"
	 viewBox="0 0 302 204.27" enable-background="new 0 0 302 204.27" xml:space="preserve">
<g>
	<g transform="matrix(21.955 0 0 -21.955 -2043.1 10481)">
		<g>
			<defs>
				<polygon id="SVGID_1_" points="1.001,1.004 2.001,1.004 1.001,2.004 				"/>
			</defs>
			<defs>
				<polygon id="SVGID_2_" points="-0.999,-0.996 -1.999,-0.996 -0.999,-1.996 				"/>
			</defs>
			<clipPath id="SVGID_3_">
				<use xlink:href="#SVGID_1_"  overflow="visible"/>
			</clipPath>
			<clipPath id="SVGID_4_" clip-path="url(#SVGID_3_)">
				<use xlink:href="#SVGID_2_"  overflow="visible"/>
			</clipPath>
			<g clip-path="url(#SVGID_4_)">
				<g transform="translate(105.72 468.11)">
					<path d="M0,0c-0.639,0-1.018,0.327-1.047,0.798h0.611c0-0.157,0.087-0.366,0.465-0.379c0.262,0,0.407,0.157,0.407,0.275
						C0.407,0.877,0.174,0.89-0.058,0.93C-0.32,0.968-0.523,1.021-0.669,1.086c-0.203,0.105-0.32,0.328-0.32,0.563
						c0,0.419,0.35,0.746,0.96,0.746c0.582,0,0.96-0.301,0.988-0.759H0.378C0.378,1.753,0.349,1.95,0,1.95
						c-0.233,0-0.378-0.039-0.407-0.209c0-0.236,0.494-0.223,0.872-0.314c0.349-0.092,0.582-0.314,0.582-0.629
						C1.047,0.222,0.582,0,0,0"/>
				</g>
			</g>
		</g>
	</g>
	<g transform="matrix(21.955 0 0 -21.955 33.537 118.8)">
		<path d="M0,0l2.006,1.165l1.076-1.846H0.378"/>
	</g>
	<g transform="matrix(21.955 0 0 -21.955 -2043.1 10481)">
		<g>
			<defs>
				<polygon id="SVGID_5_" points="1.001,1.004 2.001,1.004 1.001,2.004 				"/>
			</defs>
			<defs>
				<polygon id="SVGID_6_" points="-0.999,-0.996 -1.999,-0.996 -0.999,-1.996 				"/>
			</defs>
			<clipPath id="SVGID_7_">
				<use xlink:href="#SVGID_5_"  overflow="visible"/>
			</clipPath>
			<clipPath id="SVGID_8_" clip-path="url(#SVGID_7_)">
				<use xlink:href="#SVGID_6_"  overflow="visible"/>
			</clipPath>
			<g clip-path="url(#SVGID_8_)">
				<g transform="translate(93.655 469.31)">
					<path d="M0,0c0-0.366,0.32-0.667,0.668-0.667c0.379,0,0.669,0.301,0.669,0.667c0,0.353-0.29,0.667-0.669,0.667
						C0.32,0.667,0,0.353,0,0 M0.639-1.204C0-1.204-0.552-0.667-0.552,0c0,0.667,0.552,1.191,1.191,1.191
						c0.262,0,0.495-0.066,0.698-0.209v0.183h0.582v-2.316H1.337v0.144C1.163-1.138,0.901-1.204,0.639-1.204"/>
				</g>
			</g>
		</g>
	</g>
	<g transform="matrix(21.955 0 0 -21.955 197.59 133.74)">
		<path d="M0,0l-2.791,4.868l2.006,1.178L2.704,0"/>
	</g>
	<g transform="matrix(21.955 0 0 -21.955 -2043.1 10481)">
		<g>
			<defs>
				<polygon id="SVGID_9_" points="1.001,1.004 2.001,1.004 1.001,2.004 				"/>
			</defs>
			<defs>
				<polygon id="SVGID_10_" points="-0.999,-0.996 -1.999,-0.996 -0.999,-1.996 				"/>
			</defs>
			<clipPath id="SVGID_11_">
				<use xlink:href="#SVGID_9_"  overflow="visible"/>
			</clipPath>
			<clipPath id="SVGID_12_" clip-path="url(#SVGID_11_)">
				<use xlink:href="#SVGID_10_"  overflow="visible"/>
			</clipPath>
			<g clip-path="url(#SVGID_12_)">
				<g transform="translate(96.33 469.31)">
					<path d="M0,0c0-0.366,0.291-0.667,0.669-0.667c0.348,0,0.669,0.301,0.669,0.667c0,0.353-0.321,0.667-0.669,0.667
						C0.291,0.667,0,0.353,0,0 M0.64-1.204c-0.669,0-1.192,0.537-1.192,1.204c0,0.667,0.523,1.191,1.192,1.191
						c0.261,0,0.494-0.066,0.698-0.209v0.981h0.581v-3.114H1.338v0.144C1.134-1.138,0.901-1.204,0.64-1.204"/>
				</g>
			</g>
		</g>
	</g>
	<g transform="matrix(21.955 0 0 -21.955 85.247 73.119)">
		<path d="M0,0l2.035,1.151l2.239-3.912H2.151v-0.576H1.57v0.576"/>
	</g>
	<g transform="matrix(21.955 0 0 -21.955 -2043.1 10481)">
		<g>
			<defs>
				<polygon id="SVGID_13_" points="1.001,1.004 2.001,1.004 1.001,2.004 				"/>
			</defs>
			<defs>
				<polygon id="SVGID_14_" points="-0.999,-0.996 -1.999,-0.996 -0.999,-1.996 				"/>
			</defs>
			<clipPath id="SVGID_15_">
				<use xlink:href="#SVGID_13_"  overflow="visible"/>
			</clipPath>
			<clipPath id="SVGID_16_" clip-path="url(#SVGID_15_)">
				<use xlink:href="#SVGID_14_"  overflow="visible"/>
			</clipPath>
			<g clip-path="url(#SVGID_16_)">
				<g transform="translate(106.39 470.7)">
					<path d="M0,0c-0.146,0-0.291,0.131-0.291,0.288S-0.146,0.576,0,0.576c0.174,0,0.291-0.131,0.291-0.288S0.174,0,0,0 M0,0.536
						c-0.146,0-0.233-0.117-0.233-0.248c0-0.131,0.087-0.249,0.233-0.249c0.145,0,0.232,0.118,0.232,0.249
						C0.232,0.419,0.145,0.536,0,0.536"/>
				</g>
				<g transform="translate(106.45 470.83)">
					<path d="M0,0l-0.058,0.131h-0.058V0H-0.16v0.314h0.131c0.029,0,0.087-0.04,0.087-0.092S0.029,0.144,0,0.131L0.058,0
						 M-0.058,0.274h-0.058V0.17h0.058C0,0.17,0,0.183,0,0.222C0,0.249,0,0.274-0.058,0.274"/>
				</g>
				<g transform="translate(102.55 469.31)">
					<path d="M0,0c0-0.366,0.291-0.667,0.669-0.667c0.349,0,0.668,0.301,0.668,0.667c0,0.353-0.319,0.667-0.668,0.667
						C0.291,0.667,0,0.353,0,0 M0.639-1.204c-0.668,0-1.191,0.537-1.191,1.204c0,0.667,0.523,1.191,1.191,1.191
						c0.262,0,0.495-0.066,0.698-0.209v0.183H1.89v-2.316H1.337v0.144C1.134-1.138,0.901-1.204,0.639-1.204"/>
				</g>
				<g transform="translate(99.877 469.31)">
					<path d="M0,0c0-0.366,0.32-0.667,0.669-0.667c0.378,0,0.669,0.301,0.669,0.667c0,0.353-0.291,0.667-0.669,0.667
						C0.32,0.667,0,0.353,0,0 M1.338,1.963h0.581v-3.114H1.338v0.144C1.163-1.138,0.93-1.204,0.669-1.204
						C0-1.204-0.552-0.667-0.552,0c0,0.667,0.552,1.191,1.221,1.191c0.261,0,0.494-0.066,0.669-0.209V1.963z"/>
				</g>
			</g>
		</g>
	</g>
</g>
<rect id="_x3C_Slice_x3E_" x="115.208" y="133.74" fill="#FFFFFF" width="65.583" height="16"/>
<rect x="3.609" y="133.553" fill="none" width="24" height="16"/>
<text transform="matrix(1 0 0 1 3.6089 178.0117)" font-family="'AdihausDIN'" font-size="65">SHOEdidas</text>
</svg>
